<svg xmlns="http://www.w3.org/2000/svg" width="24" height="24" fill="none" viewBox="0 0 24 24">
    <path fill="#B08427" d="M12 3.635c.508.397 1.143.855 1.883 1.314 1.556.966 3.678 2 6.117 2.39v3.433a9 9 0 0 1-4.37 7.717L12 20.668l-3.63-2.179A9 9 0 0 1 4 10.772V7.338c2.439-.39 4.56-1.423 6.117-2.389.74-.459 1.375-.917 1.883-1.314M22 5.5C16.5 5.5 12 1 12 1S7.5 5.5 2 5.5v5.272a11 11 0 0 0 5.34 9.432L12 23l4.66-2.796A11 11 0 0 0 22 10.772z"/>
    <path fill="#F8BE2C" d="M13.883 4.949A22 22 0 0 1 12 3.635c-.508.396-1.143.855-1.883 1.314C8.561 5.915 6.44 6.948 4 7.338v3.433a9 9 0 0 0 4.37 7.718L12 20.667l3.63-2.178A9 9 0 0 0 20 10.77V7.339c-2.439-.39-4.56-1.423-6.117-2.39"/>
    <path fill="#664B1D" d="M10.032 13.951h3.542c.898 0 1.614-.691 1.614-1.53v-.15h1.183v.15c0 1.482-1.26 2.67-2.797 2.67h-3.507v2.14l-.249-.218L7 14.53l.115-.113 2.917-2.86z"/>
    <path fill="#3B2B15" d="m16.314 9.361.141.113-.136.118-2.699 2.338-.248.216v-2.097H9.866c-.898 0-1.614.692-1.614 1.531v.15H7.07v-.15c0-1.482 1.26-2.672 2.796-2.672h3.506V7.022z"/>
</svg>
